<?xml version="1.0" encoding="utf-8"?>
<svg width="24px" height="24px" viewBox="0 0 24 24" version="1.1" xmlns:xlink="http://www.w3.org/1999/xlink" xmlns="http://www.w3.org/2000/svg">
  <g id="ico-AddItem">
    <path d="M0 0L24 0L24 24L0 24L0 0Z" id="bg" fill="#D8D8D8" fill-opacity="0.01" fill-rule="evenodd" stroke="none" />
    <path d="M1.5 12C1.5 6.20101 6.20101 1.5 12 1.5C17.799 1.5 22.5 6.20101 22.5 12C22.5 17.799 17.799 22.5 12 22.5C6.20101 22.5 1.5 17.799 1.5 12ZM21.5 12C21.5 6.75329 17.2467 2.5 12 2.5C6.75329 2.5 2.5 6.75329 2.5 12C2.5 17.2467 6.75329 21.5 12 21.5C17.2467 21.5 21.5 17.2467 21.5 12ZM11 7L12.8 7L12.8 11L17 11L17 12.8L12.8 12.8L12.8 17L11 17L11 12.8L7 12.8L7 11L11 11L11 7Z" id="Combined-Shape" fill="#989899" fill-rule="evenodd" stroke="none" />
  </g>
</svg>