<?xml version="1.0" encoding="utf-8"?>
<svg width="19.253296px" height="23.447327px" viewBox="0 0 19.253296 23.447327" version="1.1" xmlns:xlink="http://www.w3.org/1999/xlink" xmlns="http://www.w3.org/2000/svg">
  <path d="M1.10266 22.4176L1.10266 1.03094L13.136 1.03094L13.136 5.2148C13.136 5.47073 13.36 5.67967 13.6373 5.67967L18.1507 5.67967L18.1507 22.4176L1.10266 22.4176ZM14.1387 1.68744L17.4413 4.74991L14.1387 4.74991L14.1387 1.68744ZM19.0066 4.88594L13.992 0.237212C13.9466 0.193939 13.892 0.159321 13.8306 0.137066C13.7706 0.112339 13.7053 0.0999756 13.6373 0.0999756L0.601309 0.0999756C0.325309 0.0999756 0.0999756 0.308921 0.0999756 0.566085L0.0999756 22.8824C0.0999756 23.1396 0.325309 23.3473 0.601309 23.3473L18.652 23.3473C18.9293 23.3473 19.1533 23.1396 19.1533 22.8824L19.1533 5.21481C19.1533 5.15299 19.14 5.09241 19.1146 5.03554C19.0893 4.9799 19.052 4.92798 19.0066 4.88594Z" id="Fill-4" fill="#989899" fill-rule="evenodd" stroke="#989899" stroke-width="0.2" />
  <path d="M4.6125 16.9475C4.27117 16.9475 3.99384 16.6904 3.99384 16.3738C3.99384 16.0573 4.27117 15.8002 4.6125 15.8002L14.6405 15.8002C14.9818 15.8002 15.2605 16.0573 15.2605 16.3738C15.2605 16.6904 14.9818 16.9475 14.6405 16.9475L4.6125 16.9475Z" id="Fill-12" fill="#989899" fill-rule="evenodd" stroke="#989899" stroke-width="0.1" />
  <path d="M4.6125 13.9475C4.27117 13.9475 3.99384 13.6904 3.99384 13.3738C3.99384 13.0573 4.27117 12.8002 4.6125 12.8002L14.6405 12.8002C14.9818 12.8002 15.2605 13.0573 15.2605 13.3738C15.2605 13.6904 14.9818 13.9475 14.6405 13.9475L4.6125 13.9475Z" id="Fill-12-Copy" fill="#989899" fill-rule="evenodd" stroke="#989899" stroke-width="0.1" />
  <path d="M4.6125 10.9475C4.27117 10.9475 3.99384 10.6904 3.99384 10.3738C3.99384 10.0573 4.27117 9.80017 4.6125 9.80017L14.6405 9.80017C14.9818 9.80017 15.2605 10.0573 15.2605 10.3738C15.2605 10.6904 14.9818 10.9475 14.6405 10.9475L4.6125 10.9475Z" id="Fill-12-Copy-2" fill="#989899" fill-rule="evenodd" stroke="#989899" stroke-width="0.1" />
  <path d="M4.6125 19.7371C4.27117 19.7371 3.99384 19.48 3.99384 19.1635C3.99384 18.847 4.27117 18.5886 4.6125 18.5886L12.2876 18.5886C12.6289 18.5886 12.9076 18.847 12.9076 19.1635C12.9076 19.48 12.6289 19.7371 12.2876 19.7371L4.6125 19.7371Z" id="Fill-18" fill="#989899" fill-rule="evenodd" stroke="#989899" stroke-width="0.1" />
</svg>