<?xml version="1.0" encoding="utf-8"?>
<svg width="22.525269px" height="20.25177px" viewBox="0 0 22.525269 20.25177" version="1.1" xmlns:xlink="http://www.w3.org/1999/xlink" xmlns="http://www.w3.org/2000/svg">
  <path d="M6.00126 2.28147C8.10026 0.57247 10.7343 -0.219531 13.4193 0.0524697C18.9743 0.615469 23.0353 5.59347 22.4733 11.1485C21.9103 16.7025 16.9323 20.7635 11.3773 20.1995C10.9253 20.1555 10.5943 19.7485 10.6403 19.2965C10.6863 18.8435 11.0923 18.5125 11.5443 18.5585C16.1933 19.0305 20.3603 15.6305 20.8313 10.9815C21.3023 6.33147 17.9033 2.16447 13.2533 1.69447C8.60326 1.22247 4.43726 4.62247 3.96626 9.27247C3.94726 9.41947 3.80526 10.5935 3.98326 11.8555L4.61426 10.6595C4.82426 10.2585 5.32226 10.1035 5.72726 10.3145C5.92226 10.4175 6.06526 10.5905 6.13026 10.8005C6.19526 11.0105 6.17526 11.2335 6.07126 11.4285L4.50826 14.3955C4.50026 14.4125 4.48726 14.4295 4.47526 14.4455L4.44626 14.4965C4.43626 14.5105 4.42426 14.5225 4.41326 14.5335C4.38326 14.5665 4.36026 14.5925 4.33326 14.6155C4.30526 14.6415 4.27626 14.6645 4.24626 14.6865C4.21626 14.7055 4.18726 14.7235 4.15626 14.7395C4.12526 14.7555 4.09226 14.7705 4.05626 14.7825C4.02226 14.7955 3.99126 14.8045 3.96026 14.8115C3.91526 14.8215 3.87726 14.8255 3.83826 14.8285C3.81326 14.8325 3.79626 14.8355 3.77926 14.8355L3.76726 14.8365L3.73826 14.8315C3.72126 14.8335 3.67426 14.8305 3.63626 14.8195C3.57726 14.8065 3.54626 14.8005 3.51726 14.7905C3.48726 14.7805 3.46226 14.7685 3.43526 14.7555C3.39226 14.7355 3.35426 14.7145 3.31726 14.6905L0.338256 12.5305C-0.0277441 12.2615 -0.109744 11.7445 0.156256 11.3775C0.426256 11.0105 0.940256 10.9285 1.30926 11.1955L2.33126 11.9385C2.13655 10.4127 2.32569 9.08942 2.32825 9.07154L2.32826 9.07147C2.59926 6.40347 3.90326 3.98947 6.00126 2.28147ZM12.3392 15.2043C11.8902 15.2043 11.5252 14.8393 11.5252 14.3903L11.5252 13.7923L10.9272 13.7923C10.4782 13.7923 10.1132 13.4273 10.1132 12.9783C10.1132 12.5293 10.4782 12.1633 10.9272 12.1633L12.8102 12.1633C13.1402 12.1633 13.4082 11.8953 13.4082 11.5663C13.4082 11.2373 13.1402 10.9683 12.8102 10.9683L11.8692 10.9683C10.6412 10.9683 9.64216 9.96927 9.64216 8.74227C9.64216 7.63027 10.4522 6.70627 11.5252 6.54127L11.5252 5.91727C11.5252 5.46827 11.8902 5.10327 12.3392 5.10327C12.7892 5.10327 13.1542 5.46827 13.1542 5.91727L13.1542 6.51527L13.7522 6.51527C14.2012 6.51527 14.5662 6.88027 14.5662 7.32927C14.5662 7.77927 14.2012 8.14427 13.7522 8.14427L11.8692 8.14427C11.5392 8.14427 11.2712 8.41227 11.2712 8.74227C11.2712 9.07127 11.5392 9.33927 11.8692 9.33927L12.8102 9.33927C14.0382 9.33927 15.0372 10.3383 15.0372 11.5663C15.0372 12.6773 14.2272 13.6013 13.1542 13.7663L13.1542 14.3903C13.1542 14.8393 12.7892 15.2043 12.3392 15.2043Z" id="Transaction_ICO" fill="#989899" fill-rule="evenodd" stroke="none" />
</svg>