<?xml version="1.0" encoding="utf-8"?>
<svg width="40px" height="40px" viewBox="0 0 40 40" version="1.1" xmlns:xlink="http://www.w3.org/1999/xlink" xmlns="http://www.w3.org/2000/svg">
  <defs>
    <path d="M2.14186 0L7.14386 0Q7.24908 0 7.3538 0.0103136Q7.45851 0.0206273 7.56171 0.0411552Q7.66491 0.0616831 7.76561 0.0922276Q7.8663 0.122772 7.96351 0.163039Q8.06072 0.203306 8.15352 0.252908Q8.24632 0.302509 8.33381 0.360968Q8.4213 0.419427 8.50264 0.486179Q8.58397 0.552932 8.65838 0.627335Q8.73278 0.701739 8.79954 0.783077Q8.86629 0.864416 8.92475 0.951905Q8.98321 1.03939 9.03281 1.13219Q9.08241 1.22499 9.12267 1.3222Q9.16294 1.41942 9.19348 1.52011Q9.22403 1.6208 9.24456 1.724Q9.26509 1.8272 9.2754 1.93192Q9.28571 2.03663 9.28571 2.14186L9.28571 7.14386Q9.28571 7.24908 9.2754 7.3538Q9.26509 7.45851 9.24456 7.56171Q9.22403 7.66491 9.19348 7.76561Q9.16294 7.8663 9.12267 7.96351Q9.08241 8.06072 9.03281 8.15352Q8.98321 8.24632 8.92475 8.33381Q8.86629 8.4213 8.79954 8.50264Q8.73278 8.58397 8.65838 8.65838Q8.58397 8.73278 8.50264 8.79954Q8.4213 8.86629 8.33381 8.92475Q8.24632 8.98321 8.15352 9.03281Q8.06072 9.08241 7.96351 9.12267Q7.8663 9.16294 7.7656 9.19348Q7.66491 9.22403 7.56171 9.24456Q7.45851 9.26509 7.3538 9.2754Q7.24908 9.28571 7.14386 9.28571L2.14186 9.28571Q2.03663 9.28571 1.93192 9.2754Q1.8272 9.26509 1.724 9.24456Q1.6208 9.22403 1.52011 9.19348Q1.41942 9.16294 1.3222 9.12267Q1.22499 9.08241 1.13219 9.03281Q1.03939 8.98321 0.951905 8.92475Q0.864416 8.86629 0.783077 8.79954Q0.701739 8.73278 0.627335 8.65838Q0.552932 8.58397 0.486179 8.50264Q0.419427 8.4213 0.360968 8.33381Q0.302509 8.24632 0.252908 8.15352Q0.203306 8.06072 0.163039 7.96351Q0.122772 7.8663 0.0922276 7.7656Q0.0616831 7.66491 0.0411552 7.56171Q0.0206273 7.45851 0.0103136 7.3538Q0 7.24908 0 7.14386L0 2.14186Q0 2.03663 0.0103136 1.93192Q0.0206273 1.8272 0.0411552 1.724Q0.0616831 1.6208 0.0922276 1.52011Q0.122772 1.41942 0.163039 1.3222Q0.203306 1.22499 0.252908 1.13219Q0.302509 1.03939 0.360968 0.951905Q0.419427 0.864416 0.486179 0.783077Q0.552932 0.701739 0.627335 0.627335Q0.701739 0.552932 0.783077 0.486179Q0.864416 0.419427 0.951905 0.360968Q1.03939 0.302509 1.13219 0.252908Q1.22499 0.203306 1.3222 0.163039Q1.41942 0.122772 1.52011 0.0922276Q1.6208 0.0616831 1.724 0.0411552Q1.8272 0.0206273 1.93192 0.0103136Q2.03663 0 2.14186 0L2.14186 0Z" id="path_1" />
    <path d="M12.8561 0L17.8581 0Q17.9634 0 18.0681 0.0103136Q18.1728 0.0206273 18.276 0.0411552Q18.3792 0.0616831 18.4799 0.0922276Q18.5806 0.122772 18.6778 0.163039Q18.775 0.203306 18.8678 0.252908Q18.9606 0.302509 19.0481 0.360968Q19.1356 0.419427 19.2169 0.486179Q19.2983 0.552932 19.3727 0.627335Q19.4471 0.701739 19.5138 0.783077Q19.5806 0.864416 19.639 0.951905Q19.6975 1.03939 19.7471 1.13219Q19.7967 1.22499 19.837 1.3222Q19.8772 1.41942 19.9078 1.52011Q19.9383 1.6208 19.9588 1.724Q19.9794 1.8272 19.9897 1.93192Q20 2.03663 20 2.14186L20 7.14386Q20 7.24908 19.9897 7.3538Q19.9794 7.45851 19.9588 7.56171Q19.9383 7.66491 19.9078 7.76561Q19.8772 7.8663 19.837 7.96351Q19.7967 8.06072 19.7471 8.15352Q19.6975 8.24632 19.639 8.33381Q19.5806 8.4213 19.5138 8.50264Q19.4471 8.58397 19.3727 8.65838Q19.2983 8.73278 19.2169 8.79954Q19.1356 8.86629 19.0481 8.92475Q18.9606 8.98321 18.8678 9.03281Q18.775 9.08241 18.6778 9.12267Q18.5806 9.16294 18.4799 9.19348Q18.3792 9.22403 18.276 9.24456Q18.1728 9.26509 18.0681 9.2754Q17.9634 9.28571 17.8581 9.28571L12.8561 9.28571Q12.7509 9.28571 12.6462 9.2754Q12.5415 9.26509 12.4383 9.24456Q12.3351 9.22403 12.2344 9.19348Q12.1337 9.16294 12.0365 9.12267Q11.9393 9.08241 11.8465 9.03281Q11.7537 8.98321 11.6662 8.92475Q11.5787 8.86629 11.4974 8.79954Q11.416 8.73278 11.3416 8.65838Q11.2672 8.58397 11.2005 8.50264Q11.1337 8.4213 11.0753 8.33381Q11.0168 8.24632 10.9672 8.15352Q10.9176 8.06072 10.8773 7.96351Q10.8371 7.8663 10.8065 7.7656Q10.776 7.66491 10.7554 7.56171Q10.7349 7.45851 10.7246 7.3538Q10.7143 7.24908 10.7143 7.14386L10.7143 2.14186Q10.7143 2.03663 10.7246 1.93192Q10.7349 1.8272 10.7554 1.724Q10.776 1.6208 10.8065 1.52011Q10.8371 1.41942 10.8773 1.3222Q10.9176 1.22499 10.9672 1.13219Q11.0168 1.03939 11.0753 0.951905Q11.1337 0.864416 11.2005 0.783077Q11.2672 0.701739 11.3416 0.627335Q11.416 0.552932 11.4974 0.486179Q11.5787 0.419427 11.6662 0.360968Q11.7537 0.302509 11.8465 0.252908Q11.9393 0.203306 12.0365 0.163039Q12.1337 0.122772 12.2344 0.0922276Q12.3351 0.0616831 12.4383 0.0411552Q12.5415 0.0206273 12.6462 0.0103136Q12.7509 0 12.8561 0Z" id="path_2" />
    <path d="M2.14186 10.7143L7.14386 10.7143Q7.24908 10.7143 7.3538 10.7246Q7.45851 10.7349 7.56171 10.7554Q7.66491 10.776 7.76561 10.8065Q7.8663 10.8371 7.96351 10.8773Q8.06072 10.9176 8.15352 10.9672Q8.24632 11.0168 8.33381 11.0753Q8.4213 11.1337 8.50264 11.2005Q8.58397 11.2672 8.65838 11.3416Q8.73278 11.416 8.79954 11.4974Q8.86629 11.5787 8.92475 11.6662Q8.98321 11.7537 9.03281 11.8465Q9.08241 11.9393 9.12267 12.0365Q9.16294 12.1337 9.19348 12.2344Q9.22403 12.3351 9.24456 12.4383Q9.26509 12.5415 9.2754 12.6462Q9.28571 12.7509 9.28571 12.8561L9.28571 17.8581Q9.28571 17.9634 9.2754 18.0681Q9.26509 18.1728 9.24456 18.276Q9.22403 18.3792 9.19348 18.4799Q9.16294 18.5806 9.12267 18.6778Q9.08241 18.775 9.03281 18.8678Q8.98321 18.9606 8.92475 19.0481Q8.86629 19.1356 8.79954 19.2169Q8.73278 19.2983 8.65838 19.3727Q8.58397 19.4471 8.50264 19.5138Q8.4213 19.5806 8.33381 19.639Q8.24632 19.6975 8.15352 19.7471Q8.06072 19.7967 7.96351 19.837Q7.8663 19.8772 7.7656 19.9078Q7.66491 19.9383 7.56171 19.9588Q7.45851 19.9794 7.3538 19.9897Q7.24908 20 7.14386 20L2.14186 20Q2.03663 20 1.93192 19.9897Q1.8272 19.9794 1.724 19.9588Q1.6208 19.9383 1.52011 19.9078Q1.41942 19.8772 1.3222 19.837Q1.22499 19.7967 1.13219 19.7471Q1.03939 19.6975 0.951905 19.639Q0.864416 19.5806 0.783077 19.5138Q0.701739 19.4471 0.627335 19.3727Q0.552932 19.2983 0.486179 19.2169Q0.419427 19.1356 0.360968 19.0481Q0.302509 18.9606 0.252908 18.8678Q0.203306 18.775 0.163039 18.6778Q0.122772 18.5806 0.0922276 18.4799Q0.0616831 18.3792 0.0411552 18.276Q0.0206273 18.1728 0.0103136 18.0681Q0 17.9634 0 17.8581L0 12.8561Q0 12.7509 0.0103136 12.6462Q0.0206273 12.5415 0.0411552 12.4383Q0.0616831 12.3351 0.0922276 12.2344Q0.122772 12.1337 0.163039 12.0365Q0.203306 11.9393 0.252908 11.8465Q0.302509 11.7537 0.360968 11.6662Q0.419427 11.5787 0.486179 11.4974Q0.552932 11.416 0.627335 11.3416Q0.701739 11.2672 0.783077 11.2005Q0.864416 11.1337 0.951905 11.0753Q1.03939 11.0168 1.13219 10.9672Q1.22499 10.9176 1.3222 10.8773Q1.41942 10.8371 1.52011 10.8065Q1.6208 10.776 1.724 10.7554Q1.8272 10.7349 1.93192 10.7246Q2.03663 10.7143 2.14186 10.7143L2.14186 10.7143Z" id="path_3" />
    <path d="M12.8561 10.7143L17.8581 10.7143Q17.9634 10.7143 18.0681 10.7246Q18.1728 10.7349 18.276 10.7554Q18.3792 10.776 18.4799 10.8065Q18.5806 10.8371 18.6778 10.8773Q18.775 10.9176 18.8678 10.9672Q18.9606 11.0168 19.0481 11.0753Q19.1356 11.1337 19.2169 11.2005Q19.2983 11.2672 19.3727 11.3416Q19.4471 11.416 19.5138 11.4974Q19.5806 11.5787 19.639 11.6662Q19.6975 11.7537 19.7471 11.8465Q19.7967 11.9393 19.837 12.0365Q19.8772 12.1337 19.9078 12.2344Q19.9383 12.3351 19.9588 12.4383Q19.9794 12.5415 19.9897 12.6462Q20 12.7509 20 12.8561L20 17.8581Q20 17.9634 19.9897 18.0681Q19.9794 18.1728 19.9588 18.276Q19.9383 18.3792 19.9078 18.4799Q19.8772 18.5806 19.837 18.6778Q19.7967 18.775 19.7471 18.8678Q19.6975 18.9606 19.639 19.0481Q19.5806 19.1356 19.5138 19.2169Q19.4471 19.2983 19.3727 19.3727Q19.2983 19.4471 19.2169 19.5138Q19.1356 19.5806 19.0481 19.639Q18.9606 19.6975 18.8678 19.7471Q18.775 19.7967 18.6778 19.837Q18.5806 19.8772 18.4799 19.9078Q18.3792 19.9383 18.276 19.9588Q18.1728 19.9794 18.0681 19.9897Q17.9634 20 17.8581 20L12.8561 20Q12.7509 20 12.6462 19.9897Q12.5415 19.9794 12.4383 19.9588Q12.3351 19.9383 12.2344 19.9078Q12.1337 19.8772 12.0365 19.837Q11.9393 19.7967 11.8465 19.7471Q11.7537 19.6975 11.6662 19.639Q11.5787 19.5806 11.4974 19.5138Q11.416 19.4471 11.3416 19.3727Q11.2672 19.2983 11.2005 19.2169Q11.1337 19.1356 11.0753 19.0481Q11.0168 18.9606 10.9672 18.8678Q10.9176 18.775 10.8773 18.6778Q10.8371 18.5806 10.8065 18.4799Q10.776 18.3792 10.7554 18.276Q10.7349 18.1728 10.7246 18.0681Q10.7143 17.9634 10.7143 17.8581L10.7143 12.8561Q10.7143 12.7509 10.7246 12.6462Q10.7349 12.5415 10.7554 12.4383Q10.776 12.3351 10.8065 12.2344Q10.8371 12.1337 10.8773 12.0365Q10.9176 11.9393 10.9672 11.8465Q11.0168 11.7537 11.0753 11.6662Q11.1337 11.5787 11.2005 11.4974Q11.2672 11.416 11.3416 11.3416Q11.416 11.2672 11.4974 11.2005Q11.5787 11.1337 11.6662 11.0753Q11.7537 11.0168 11.8465 10.9672Q11.9393 10.9176 12.0365 10.8773Q12.1337 10.8371 12.2344 10.8065Q12.3351 10.776 12.4383 10.7554Q12.5415 10.7349 12.6462 10.7246Q12.7509 10.7143 12.8561 10.7143Z" id="path_4" />
    <rect width="40" height="40" id="artboard_1" />
    <clipPath id="clip_1">
      <use xlink:href="#artboard_1" clip-rule="evenodd" />
    </clipPath>
    <clipPath id="clip_2">
      <use xlink:href="#path_1" />
    </clipPath>
    <clipPath id="clip_3">
      <use xlink:href="#path_2" />
    </clipPath>
    <clipPath id="clip_4">
      <use xlink:href="#path_3" />
    </clipPath>
    <clipPath id="clip_5">
      <use xlink:href="#path_4" />
    </clipPath>
  </defs>
  <g id="01-Elements01-Icons02-Do-More-40px-More" clip-path="url(#clip_1)">
    <path d="M0 0L40 0L40 40L0 40L0 0Z" id="SafeSpace" fill="none" fill-rule="evenodd" stroke="none" />
    <g id="ico-more" transform="translate(8 8)">
      <path d="M0 0L24 0L24 24L0 24L0 0Z" id="bg" fill="#D8D8D8" fill-opacity="0.01" fill-rule="evenodd" stroke="none" />
      <g id="ico" transform="translate(2 2)">
        <g id="Rectangle">
          <g clip-path="url(#clip_2)">
            <use xlink:href="#path_1" fill="none" stroke="#ED3124" stroke-width="2.2" />
          </g>
        </g>
        <g id="Rectangle">
          <g clip-path="url(#clip_3)">
            <use xlink:href="#path_2" fill="none" stroke="#5C5B5E" stroke-width="2.2" />
          </g>
        </g>
        <g id="Rectangle">
          <g clip-path="url(#clip_4)">
            <use xlink:href="#path_3" fill="none" stroke="#5C5B5E" stroke-width="2.2" />
          </g>
        </g>
        <g id="Rectangle">
          <g clip-path="url(#clip_5)">
            <use xlink:href="#path_4" fill="none" stroke="#5C5B5E" stroke-width="2.2" />
          </g>
        </g>
      </g>
    </g>
  </g>
</svg>