<?xml version="1.0" encoding="utf-8"?>
<svg width="19.536194px" height="18.009155px" viewBox="0 0 19.536194 18.009155" version="1.1" xmlns:xlink="http://www.w3.org/1999/xlink" xmlns="http://www.w3.org/2000/svg">
  <path d="M19.5362 1.9627C19.5362 1.577 19.2333 1.27585 18.8467 1.27585L15.4305 1.27585L15.4305 0.6878C15.4305 0.30115 15.1276 0 14.741 0C14.3533 0 14.0505 0.30115 14.0505 0.6878L14.0505 1.27585L5.60381 1.27585L5.60381 0.6878C5.60381 0.30115 5.30095 0 4.91429 0C4.52667 0 4.22476 0.30115 4.22476 0.6878L4.22476 1.27585L0.690476 1.27585C0.30381 1.27585 0 1.577 0 1.9627L0 17.3384C0 17.7023 0.316191 18.0091 0.690476 18.0091L18.8467 18.0091C19.2333 18.0091 19.5362 17.707 19.5362 17.3204L19.5362 1.9627ZM18.1733 4.4308L1.38095 4.4308L1.38095 2.65145L4.22476 2.65145L4.22476 3.021C4.22476 3.4067 4.52667 3.7088 4.91429 3.7088C5.30095 3.7088 5.60381 3.4067 5.60381 3.021L5.60381 2.65145L14.0505 2.65145L14.0505 3.021C14.0505 3.4067 14.3533 3.7088 14.741 3.7088C15.1276 3.7088 15.4305 3.4067 15.4305 3.021L15.4305 2.65145L18.1733 2.65145L18.1733 4.4308ZM18.1562 5.8064L18.1562 16.6497L1.38 16.6497L1.38 5.8064L18.1562 5.8064ZM4.81294 8.96277L14.7406 8.96277C15.1272 8.96277 15.431 9.26392 15.431 9.65057C15.431 10.0363 15.1272 10.3384 14.7406 10.3384L4.81294 10.3384C4.42627 10.3384 4.12341 10.0363 4.12341 9.65057C4.12341 9.26392 4.42627 8.96277 4.81294 8.96277ZM4.81297 12.286L9.77678 12.286C10.1635 12.286 10.4673 12.5881 10.4673 12.9747C10.4673 13.3604 10.1635 13.6616 9.77678 13.6616L4.81297 13.6616C4.42631 13.6616 4.1225 13.3604 4.1225 12.9747C4.1225 12.5881 4.42631 12.286 4.81297 12.286Z" id="ico" fill="#989899" fill-rule="evenodd" stroke="none" />
</svg>