<?xml version="1.0" encoding="utf-8"?>
<svg width="13.999023px" height="14.000732px" viewBox="0 0 13.999023 14.000732" version="1.1" xmlns:xlink="http://www.w3.org/1999/xlink" xmlns="http://www.w3.org/2000/svg">
  <path d="M6.9995 5.7735L12.5195 0.2535C12.8575 -0.0845003 13.4065 -0.0845003 13.7455 0.2535C14.0835 0.5925 14.0835 1.1415 13.7455 1.4805L8.2265 7.0005L13.7455 12.5195C14.0835 12.8585 14.0835 13.4075 13.7455 13.7465C13.4065 14.0855 12.8575 14.0855 12.5195 13.7465L6.9995 8.2265L1.4795 13.7465C1.1415 14.0855 0.5925 14.0855 0.2535 13.7465C-0.0845003 13.4075 -0.0845003 12.8585 0.2535 12.5195L5.7725 7.0005L0.2535 1.4805C-0.0845003 1.1415 -0.0845003 0.5925 0.2535 0.2535C0.5925 -0.0845003 1.1415 -0.0845003 1.4795 0.2535L6.9995 5.7735Z" id="ico" fill="#989899" fill-rule="evenodd" stroke="none" />
</svg>