<?xml version="1.0" encoding="utf-8"?>
<svg width="40px" height="40px" viewBox="0 0 40 40" version="1.1" xmlns:xlink="http://www.w3.org/1999/xlink" xmlns="http://www.w3.org/2000/svg">
  <g id="ICO_BillPayment">
    <path d="M0 0L40 0L40 40L0 40L0 0Z" id="SafeSpace" fill="none" fill-rule="evenodd" stroke="none" />
  </g>
  <g id="XMLID_21_" transform="translate(7.5 5.8361816)">
    <g id="XMLID_22_" transform="translate(0 21.960327)">
      <path d="M18.6433 6.36732L3.04323 6.36732C1.36519 6.36732 0 5.00213 0 3.32409C0 2.51351 0.312856 1.74559 0.895904 1.17676L1.84869 0.223976C2.14733 -0.0746587 2.63083 -0.0746587 2.92947 0.223976C3.2281 0.522611 3.2281 1.00611 2.92947 1.30475L1.97668 2.25754C1.69226 2.54195 1.53584 2.92591 1.53584 3.33831C1.53584 4.17733 2.21843 4.85993 3.05745 4.85993L18.6576 4.85993C19.07 4.85993 19.4113 5.20122 19.4113 5.61362C19.4113 6.02602 19.07 6.36732 18.6433 6.36732Z" id="XMLID_207_" fill="#F03D3D" stroke="none" />
    </g>
    <g id="XMLID_14_" transform="translate(0.61499023 0)">
      <g id="XMLID_17_" transform="translate(10.59082 0)">
        <g id="XMLID_18_">
          <path d="M2.87258 8.91638L1.79181 7.83561L7.23834 2.38908C7.43743 2.18999 7.43743 1.86291 7.23834 1.66382C7.03925 1.46473 6.71217 1.46473 6.51308 1.66382L1.08077 7.12457L0 6.0438L5.44653 0.59727C6.24289 -0.19909 7.52275 -0.19909 8.31911 0.59727C9.11547 1.39363 9.11547 2.67349 8.31911 3.46985L2.87258 8.91638Z" id="XMLID_210_" fill="#F03D3D" stroke="none" />
        </g>
        <g id="XMLID_19_" transform="translate(4.8777018 4.8777018)">
          <path d="M2.8868 8.9306L1.80603 7.84983L7.25256 2.4033C7.45165 2.20421 7.45165 1.87713 7.25256 1.67804C7.05347 1.47895 6.72639 1.47895 6.5273 1.67804L1.08077 7.12457L0 6.0438L5.44653 0.59727C6.24289 -0.19909 7.52275 -0.19909 8.31911 0.59727C9.11547 1.39363 9.11547 2.67349 8.31911 3.46985L2.8868 8.9306Z" id="XMLID_209_" fill="#F03D3D" stroke="none" />
        </g>
      </g>
      <g id="XMLID_15_" transform="translate(5.2296143 2.9187927)">
        <path d="M13.2395 16.2507C13.0404 16.2507 12.8555 16.1796 12.6991 16.0232L0.227531 3.55162C0.0853242 3.40941 0 3.21032 0 3.01123C0 2.81214 0.0853242 2.61305 0.227531 2.47085L2.4744 0.223976C2.77304 -0.0746587 3.25654 -0.0746587 3.55518 0.223976L16.0267 12.6955C16.3254 12.9942 16.3254 13.4777 16.0267 13.7763L13.7799 16.0232C13.6234 16.1796 13.4243 16.2507 13.2395 16.2507ZM1.83447 3.02545L13.2395 14.4305L14.4198 13.2501L3.01479 1.84514L1.83447 3.02545Z" id="XMLID_214_" fill="#58595B" stroke="none" />
      </g>
      <g id="XMLID_16_" transform="translate(1.0061035 5.962036)">
        <path d="M8.46132 17.431C6.20023 17.431 4.06712 16.5493 2.4744 14.9566C-0.824801 11.6574 -0.824801 6.282 2.4744 2.98279L5.23322 0.223976C5.53185 -0.0746587 6.01536 -0.0746587 6.31399 0.223976L17.2213 11.1313C17.3635 11.2735 17.4488 11.4726 17.4488 11.6716C17.4488 11.8707 17.3635 12.0698 17.2213 12.212L14.4625 14.9708C12.8555 16.5493 10.7224 17.431 8.46132 17.431ZM5.77361 1.84512L3.55518 4.04933C0.839028 6.76549 0.839028 11.1597 3.55518 13.8758C4.86349 15.1841 6.61263 15.9094 8.47555 15.9094C10.3385 15.9094 12.0734 15.1841 13.3959 13.8758L15.6143 11.6574L5.77361 1.84512Z" id="XMLID_211_" fill="#58595B" stroke="none" />
      </g>
      <g id="XMLID_20_" transform="translate(0 18.75711)">
        <path d="M2.66994 5.6314C2.47085 5.6314 2.28598 5.5603 2.12955 5.40387L0.223976 3.49829C-0.0746587 3.19966 -0.0746587 2.71615 0.223976 2.41752L2.6415 0L3.72227 1.08077L1.84514 2.95791L2.66994 3.78271L4.54707 1.90557L5.62784 2.98635L3.21032 5.40387C3.06812 5.5603 2.86903 5.6314 2.66994 5.6314Z" id="XMLID_208_" fill="#58595B" stroke="none" />
      </g>
    </g>
  </g>
</svg>