<?xml version="1.0" encoding="utf-8"?>
<svg width="15.75px" height="14.597443px" viewBox="0 0 15.75 14.597443" version="1.1" xmlns:xlink="http://www.w3.org/1999/xlink" xmlns="http://www.w3.org/2000/svg">
  <path d="M10.0462 2.78494L15.75 2.78494L15.75 1.65994L10.0462 1.65994C9.77996 0.680085 8.89039 0 7.875 0C6.85961 0 5.97004 0.680085 5.70375 1.65994L0 1.65994L0 2.78494L5.70375 2.78494C5.97004 3.76479 6.85961 4.44488 7.875 4.44488C8.89039 4.44488 9.77996 3.76479 10.0462 2.78494ZM5.54625 7.84744L15.75 7.84744L15.75 6.72244L5.54625 6.72244C5.27996 5.74259 4.39039 5.0625 3.375 5.0625C2.35961 5.0625 1.47004 5.74259 1.20375 6.72244L0 6.72244L0 7.84744L1.20375 7.84744C1.47004 8.82729 2.35961 9.50738 3.375 9.50738C4.39039 9.50738 5.27996 8.82729 5.54625 7.84744ZM12.375 14.5974C13.3983 14.5941 14.2904 13.9007 14.5462 12.9099L15.75 12.9099L15.75 11.7849L14.5462 11.7849C14.28 10.8051 13.3904 10.125 12.375 10.125C11.3596 10.125 10.47 10.8051 10.2038 11.7849L0 11.7849L0 12.9099L10.2038 12.9099C10.4596 13.9007 11.3517 14.5941 12.375 14.5974ZM11.25 12.3474C11.25 11.7261 11.7537 11.2224 12.375 11.2224C12.9963 11.2224 13.5 11.7261 13.5 12.3474C13.5 12.9688 12.9963 13.4724 12.375 13.4724C12.0766 13.4724 11.7905 13.3539 11.5795 13.1429C11.3685 12.932 11.25 12.6458 11.25 12.3474ZM6.75 2.22244C6.75 1.60112 7.25368 1.09744 7.875 1.09744C8.49632 1.09744 9 1.60112 9 2.22244C9 2.84376 8.49632 3.34744 7.875 3.34744C7.25368 3.34744 6.75 2.84376 6.75 2.22244ZM2.25 7.28494C2.25 6.66362 2.75368 6.15994 3.375 6.15994C3.99632 6.15994 4.5 6.66362 4.5 7.28494C4.5 7.90626 3.99632 8.40994 3.375 8.40994C2.75368 8.40994 2.25 7.90626 2.25 7.28494Z" id="Style" fill="#989899" fill-rule="evenodd" stroke="none" />
</svg>