<?xml version="1.0" encoding="utf-8"?>
<svg width="12px" height="16px" viewBox="0 0 12 16" version="1.1" xmlns:xlink="http://www.w3.org/1999/xlink" xmlns="http://www.w3.org/2000/svg">
  <path d="M10.7695 14.699L10.6696 14.795L10.621 14.795L1.22952 14.7648L1.26222 7.57486L1.37901 7.57486L10.7695 7.60594L10.7695 14.699ZM3.5204 3.63063C3.5204 2.29303 4.63314 1.20411 6 1.20411C7.36686 1.20411 8.4796 2.29303 8.4796 3.63063L8.4796 6.37166L3.5204 6.37166L3.5204 3.63063ZM12 7.72023C12 6.97691 11.3815 6.37166 10.621 6.37166L9.71006 6.37166L9.71006 3.63063C9.71006 1.62834 8.04516 0 6 0C3.95391 0 2.28994 1.62834 2.28994 3.63063L2.28994 6.37166L1.37808 6.37166C0.618499 6.37166 0 6.97691 0 7.72023L0 14.6505C0 15.3947 0.618499 16 1.37808 16L10.621 16C11.3815 16 12 15.3947 12 14.6505L12 7.72023Z" id="Fill-1" fill="#989899" fill-rule="evenodd" stroke="none" />
</svg>