<?xml version="1.0" encoding="utf-8"?>
<svg width="19.5px" height="17.620026px" viewBox="0 0 19.5 17.620026" version="1.1" xmlns:xlink="http://www.w3.org/1999/xlink" xmlns="http://www.w3.org/2000/svg">
  <path d="M17.7502 0L-0.249756 0C-0.66397 0 -0.999756 0.335786 -0.999756 0.75L-0.999756 12.8389L-0.992909 12.9407C-0.943247 13.3067 -0.629452 13.5889 -0.249756 13.5889L3.00024 13.588L3.00024 16.8685L3.00681 16.9714C3.08463 17.571 3.83568 17.847 4.28253 17.3969L8.06324 13.588L17.7502 13.5889C18.1645 13.5889 18.5002 13.2531 18.5002 12.8389L18.5002 0.75C18.5002 0.335786 18.1645 0 17.7502 0ZM17.0002 1.5L17.0002 12.088L7.75024 12.0889L7.63165 12.0983C7.47576 12.1233 7.33061 12.197 7.21796 12.3105L4.50024 15.047L4.50024 12.8389L4.4934 12.7371C4.44374 12.371 4.12994 12.0889 3.75024 12.0889L0.500244 12.088L0.500244 1.5L17.0002 1.5Z" id="Support_ICO" fill="#989899" stroke="none" />
</svg>