<?xml version="1.0" encoding="utf-8"?>
<svg width="20.212524px" height="20.212524px" viewBox="0 0 20.212524 20.212524" version="1.1" xmlns:xlink="http://www.w3.org/1999/xlink" xmlns="http://www.w3.org/2000/svg">
  <path d="M15.6503 6.99508L15.6503 8.10703C15.6503 8.33173 15.5621 8.54488 15.4014 8.70553C15.2397 8.86723 15.0266 8.95648 14.8008 8.95648C14.3325 8.95648 13.9514 8.57533 13.9514 8.10703L13.9514 6.99508L12.5202 6.99508L12.5202 8.10703C12.5202 8.33173 12.432 8.54488 12.2703 8.70553C12.1086 8.86723 11.8955 8.95648 11.6708 8.95648C11.2025 8.95648 10.8213 8.57533 10.8213 8.10703L10.8213 6.99508L9.39016 6.99508L9.39016 8.10703C9.39016 8.33173 9.30196 8.54488 9.14026 8.70553C8.97856 8.86723 8.76541 8.95648 8.54071 8.95648C8.07241 8.95648 7.69126 8.57533 7.69126 8.10703L7.69126 6.99508L6.26011 6.99508L6.26011 8.10703C6.26011 8.33173 6.17191 8.54488 6.01021 8.70553C5.84956 8.86723 5.63536 8.95648 5.41066 8.95648C4.94236 8.95648 4.56121 8.57533 4.56121 8.10703L4.56121 6.99508L3.13006 6.99508L3.13006 8.10703C3.13006 8.33173 3.04081 8.54488 2.88016 8.70553C2.71846 8.86723 2.50531 8.95648 2.28061 8.95648C1.81231 8.95648 1.43116 8.57533 1.43116 8.10703L1.43116 6.83863L4.14226 4.12753L16.0703 4.12753L18.7803 6.83863L18.7803 8.10703C18.7803 8.33173 18.6921 8.54488 18.5315 8.70553C18.3698 8.86723 18.1566 8.95648 17.9309 8.95648C17.4636 8.95648 17.0825 8.57533 17.0814 8.10703L17.0814 6.99508L15.6503 6.99508ZM6.64966 13.3003L6.64966 18.7813L3.09436 18.7813L3.09436 10.2375C3.37261 10.1314 3.62461 9.97288 3.84511 9.76393C4.26721 10.1629 4.83001 10.3876 5.41066 10.3876C5.99551 10.3876 6.54886 10.1671 6.97516 9.76393C7.39726 10.1629 7.96006 10.3876 8.54071 10.3876C9.12556 10.3876 9.67891 10.1671 10.1052 9.76393C10.5284 10.1629 11.0912 10.3876 11.6708 10.3876C12.2556 10.3876 12.809 10.1671 13.2353 9.76393C13.6584 10.1629 14.2212 10.3876 14.8008 10.3876C15.3867 10.3876 15.939 10.1671 16.3664 9.76393C16.5827 9.96973 16.8399 10.1304 17.1171 10.2375L17.1171 18.7813L13.5618 18.7813L13.5618 13.3003L6.64966 13.3003ZM4.56121 2.69323L15.6513 2.69323L15.6513 1.43113L4.56121 1.43113L4.56121 2.69323ZM8.08186 18.7813L12.1307 18.7813L12.1307 14.7325L8.08186 14.7325L8.08186 18.7813ZM17.0825 3.11533L17.0825 -1.71661e-05L3.13006 -1.71661e-05L3.13006 3.11533L0.0378098 6.20653L1.00136e-05 6.24538L1.00136e-05 8.10703C1.00136e-05 9.13918 0.67831 10.0275 1.66321 10.3015L1.66321 20.2125L18.5493 20.2125L18.5493 10.3026C18.9231 10.1976 19.2644 9.99598 19.5437 9.71773C19.9752 9.28618 20.2125 8.71393 20.2125 8.10703L20.2125 6.24538L17.0825 3.11533Z" id="Fill-1" fill="#989899" fill-rule="evenodd" stroke="none" />
</svg>