<?xml version="1.0" encoding="utf-8"?>
<svg width="22.525269px" height="20.25177px" viewBox="0 0 22.525269 20.25177" version="1.1" xmlns:xlink="http://www.w3.org/1999/xlink" xmlns="http://www.w3.org/2000/svg">
  <path d="M6.00127 2.28146C8.10027 0.572462 10.7343 -0.219539 13.4193 0.0524616C18.9743 0.615461 23.0353 5.59346 22.4733 11.1485C21.9103 16.7025 16.9323 20.7635 11.3773 20.1995C10.9253 20.1555 10.5943 19.7485 10.6403 19.2965C10.6863 18.8435 11.0923 18.5125 11.5443 18.5585C16.1933 19.0305 20.3603 15.6305 20.8313 10.9815C21.3023 6.33146 17.9033 2.16446 13.2533 1.69446C8.60327 1.22246 4.43727 4.62246 3.96627 9.27246C3.94727 9.41946 3.80527 10.5935 3.98327 11.8555L4.61427 10.6595C4.82427 10.2585 5.32227 10.1035 5.72727 10.3145C5.92227 10.4175 6.06527 10.5905 6.13027 10.8005C6.19527 11.0105 6.17527 11.2335 6.07127 11.4285L4.50827 14.3955C4.50027 14.4125 4.48727 14.4295 4.47527 14.4455L4.44627 14.4965C4.43627 14.5105 4.42427 14.5225 4.41327 14.5335C4.38327 14.5665 4.36027 14.5925 4.33327 14.6155C4.30527 14.6415 4.27627 14.6645 4.24627 14.6865C4.21627 14.7055 4.18727 14.7235 4.15627 14.7395C4.12527 14.7555 4.09227 14.7705 4.05627 14.7825C4.02227 14.7955 3.99127 14.8045 3.96027 14.8115C3.91527 14.8215 3.87727 14.8255 3.83827 14.8285C3.81327 14.8325 3.79627 14.8355 3.77927 14.8355L3.76727 14.8365L3.73827 14.8315C3.72127 14.8335 3.67427 14.8305 3.63627 14.8195C3.57727 14.8065 3.54627 14.8005 3.51727 14.7905C3.48727 14.7805 3.46227 14.7685 3.43527 14.7555C3.39227 14.7355 3.35427 14.7145 3.31727 14.6905L0.338267 12.5305C-0.0277331 12.2615 -0.109733 11.7445 0.156267 11.3775C0.426267 11.0105 0.940267 10.9285 1.30927 11.1955L2.33127 11.9385C2.13656 10.4127 2.3257 9.08941 2.32826 9.07153L2.32827 9.07146C2.59927 6.40346 3.90327 3.98946 6.00127 2.28146ZM12.3392 15.2043C11.8902 15.2043 11.5252 14.8393 11.5252 14.3903L11.5252 13.7923L10.9272 13.7923C10.4782 13.7923 10.1132 13.4273 10.1132 12.9783C10.1132 12.5293 10.4782 12.1633 10.9272 12.1633L12.8102 12.1633C13.1402 12.1633 13.4082 11.8953 13.4082 11.5663C13.4082 11.2373 13.1402 10.9683 12.8102 10.9683L11.8692 10.9683C10.6412 10.9683 9.64221 9.96927 9.64221 8.74227C9.64221 7.63027 10.4522 6.70627 11.5252 6.54127L11.5252 5.91727C11.5252 5.46827 11.8902 5.10327 12.3392 5.10327C12.7892 5.10327 13.1542 5.46827 13.1542 5.91727L13.1542 6.51527L13.7522 6.51527C14.2012 6.51527 14.5662 6.88027 14.5662 7.32927C14.5662 7.77927 14.2012 8.14427 13.7522 8.14427L11.8692 8.14427C11.5392 8.14427 11.2712 8.41227 11.2712 8.74227C11.2712 9.07127 11.5392 9.33927 11.8692 9.33927L12.8102 9.33927C14.0382 9.33927 15.0372 10.3383 15.0372 11.5663C15.0372 12.6773 14.2272 13.6013 13.1542 13.7663L13.1542 14.3903C13.1542 14.8393 12.7892 15.2043 12.3392 15.2043Z" id="Transaction_ICO" fill="#58585B" fill-rule="evenodd" stroke="none" />
</svg>