<?xml version="1.0" encoding="utf-8"?>
<svg width="19.253296px" height="23.447327px" viewBox="0 0 19.253296 23.447327" version="1.1" xmlns:xlink="http://www.w3.org/1999/xlink" xmlns="http://www.w3.org/2000/svg">
  <path d="M1.10266 22.4176L1.10266 1.03094L13.136 1.03094L13.136 5.2148C13.136 5.47073 13.36 5.67967 13.6373 5.67967L18.1507 5.67967L18.1507 22.4176L1.10266 22.4176ZM14.1387 1.68744L17.4413 4.74991L14.1387 4.74991L14.1387 1.68744ZM19.0066 4.88594L13.992 0.237212C13.9466 0.193939 13.892 0.159321 13.8306 0.137066C13.7706 0.112339 13.7053 0.0999756 13.6373 0.0999756L0.601309 0.0999756C0.325309 0.0999756 0.0999756 0.308921 0.0999756 0.566085L0.0999756 22.8824C0.0999756 23.1396 0.325309 23.3473 0.601309 23.3473L18.652 23.3473C18.9293 23.3473 19.1533 23.1396 19.1533 22.8824L19.1533 5.21481C19.1533 5.15299 19.14 5.09241 19.1146 5.03554C19.0893 4.9799 19.052 4.92798 19.0066 4.88594Z" id="Fill-4" fill="#989899" fill-rule="evenodd" stroke="#989899" stroke-width="0.2" />
  <path d="M10.9725 14.1578C10.6312 14.1578 10.3525 13.9006 10.3525 13.5841C10.3525 13.2676 10.6312 13.0104 10.9725 13.0104L14.6405 13.0104C14.9819 13.0104 15.2605 13.2676 15.2605 13.5841C15.2605 13.9006 14.9819 14.1578 14.6405 14.1578L10.9725 14.1578Z" id="Fill-6" fill="#989899" fill-rule="evenodd" stroke="#989899" stroke-width="0.1" />
  <path d="M4.61256 16.9475C4.27123 16.9475 3.9939 16.6904 3.9939 16.3738C3.9939 16.0573 4.27123 15.8002 4.61256 15.8002L14.6406 15.8002C14.9819 15.8002 15.2606 16.0573 15.2606 16.3738C15.2606 16.6904 14.9819 16.9475 14.6406 16.9475L4.61256 16.9475Z" id="Fill-12" fill="#989899" fill-rule="evenodd" stroke="#989899" stroke-width="0.1" />
  <path d="M4.61256 19.7371C4.27123 19.7371 3.9939 19.48 3.9939 19.1635C3.9939 18.847 4.27123 18.5886 4.61256 18.5886L12.2876 18.5886C12.629 18.5886 12.9076 18.847 12.9076 19.1635C12.9076 19.48 12.629 19.7371 12.2876 19.7371L4.61256 19.7371Z" id="Fill-18" fill="#989899" fill-rule="evenodd" stroke="#989899" stroke-width="0.1" />
  <path d="M6.47016 7.2325L5.63552 7.2325C5.16003 7.2325 4.7732 6.87621 4.7732 6.43826C4.7732 6.0003 5.16005 5.64401 5.63552 5.64401L7.30477 5.64401C7.51994 5.64401 7.69437 5.48334 7.69437 5.28516C7.69437 5.08697 7.51994 4.9263 7.30477 4.9263L6.44245 4.9263L6.44245 4.13204C6.44245 3.93386 6.26801 3.77319 6.05284 3.77319C5.83768 3.77319 5.66324 3.93386 5.66324 4.13204L5.66324 4.9263L5.63555 4.9263C4.7304 4.9263 3.99402 5.60458 3.99402 6.43826C3.99402 7.27195 4.73042 7.9502 5.63555 7.9502L6.47019 7.9502C6.94566 7.9502 7.33248 8.30652 7.33248 8.74446C7.33248 9.1824 6.94566 9.53872 6.47019 9.53872L4.80094 9.53872C4.58578 9.53872 4.41134 9.69939 4.41134 9.89757C4.41134 10.0958 4.58578 10.2564 4.80094 10.2564L5.66324 10.2564L5.66324 11.0507C5.66324 11.2489 5.83768 11.4096 6.05284 11.4096C6.26801 11.4096 6.44245 11.2489 6.44245 11.0507L6.44245 10.2564L6.47016 10.2564C7.37529 10.2564 8.11167 9.57815 8.11167 8.74446C8.11167 7.91078 7.37529 7.2325 6.47016 7.2325Z" id="Path" fill="#989899" stroke="#989899" stroke-width="0.4" />
</svg>