<?xml version="1.0" encoding="UTF-8"?>
<svg width="32px" height="32px" viewBox="0 0 32 32" version="1.1" xmlns="http://www.w3.org/2000/svg" xmlns:xlink="http://www.w3.org/1999/xlink">
    <title>2B5E43AF-D92F-40BB-942B-64EEC16E2CB5</title>
    <g id="8000_ShareReceipt" stroke="none" stroke-width="1" fill="none" fill-rule="evenodd">
        <g id="102_Tx_ShareReceipt_Nickname" transform="translate(-20.000000, -88.000000)">
            <g id="Group-2" transform="translate(0.000000, 64.000000)">
                <g id="ScanAndPay_ICO_Blue" transform="translate(20.000000, 24.000000)">
                    <rect id="Rectangle" fill-opacity="0.01" fill="#FFFFFF" x="0" y="0" width="32" height="32"></rect>
                    <path d="M16,4 C22.627417,4 28,9.372583 28,16 C28,22.627417 22.627417,28 16,28 C9.372583,28 4,22.627417 4,16 C4,9.372583 9.372583,4 16,4 Z M16,4.6 C9.70395385,4.6 4.6,9.70395385 4.6,16 C4.6,22.2960461 9.70395385,27.4 16,27.4 C22.2960461,27.4 27.4,22.2960461 27.4,16 C27.4,9.70395385 22.2960461,4.6 16,4.6 Z M11.390625,18.075 C11.6063672,18.075 11.78125,18.2498828 11.78125,18.465625 L11.78125,18.465625 L11.78125,20.41875 L13.734375,20.41875 C13.9501172,20.41875 14.125,20.5936328 14.125,20.809375 C14.125,21.0251172 13.9501172,21.2 13.734375,21.2 L13.734375,21.2 L11.390625,21.2 C11.1748828,21.2 11,21.0251172 11,20.809375 L11,20.809375 L11,18.465625 C11,18.2498828 11.1748828,18.075 11.390625,18.075 Z M20.609375,18.075 C20.8251172,18.075 21,18.2498828 21,18.465625 L21,18.465625 L21,20.809375 C21,21.0251172 20.8251172,21.2 20.609375,21.2 L20.609375,21.2 L18.265625,21.2 C18.0498828,21.2 17.875,21.0251172 17.875,20.809375 C17.875,20.5936328 18.0498828,20.41875 18.265625,20.41875 L18.265625,20.41875 L20.21875,20.41875 L20.21875,18.465625 C20.21875,18.2498828 20.3936328,18.075 20.609375,18.075 Z M21.625,15.825 C21.8321068,15.825 22,15.9928932 22,16.2 C22,16.4071068 21.8321068,16.575 21.625,16.575 L10.375,16.575 C10.1678932,16.575 10,16.4071068 10,16.2 C10,15.9928932 10.1678932,15.825 10.375,15.825 L21.625,15.825 Z M13.734375,11.2 C13.9501172,11.2 14.125,11.3748828 14.125,11.590625 C14.125,11.8063672 13.9501172,11.98125 13.734375,11.98125 L13.734375,11.98125 L11.78125,11.98125 L11.78125,13.934375 C11.78125,14.1501172 11.6063672,14.325 11.390625,14.325 C11.1748828,14.325 11,14.1501172 11,13.934375 L11,13.934375 L11,11.590625 C11,11.3748828 11.1748828,11.2 11.390625,11.2 L11.390625,11.2 Z M20.609375,11.2 C20.8251172,11.2 21,11.3748828 21,11.590625 L21,11.590625 L21,13.934375 C21,14.1501172 20.8251172,14.325 20.609375,14.325 C20.3936328,14.325 20.21875,14.1501172 20.21875,13.934375 L20.21875,13.934375 L20.21875,11.98125 L18.265625,11.98125 C18.0498828,11.98125 17.875,11.8063672 17.875,11.590625 C17.875,11.3748828 18.0498828,11.2 18.265625,11.2 L18.265625,11.2 Z" id="ScanAndPay_ICO" fill="#58595B" fill-rule="nonzero"></path>
                </g>
            </g>
        </g>
    </g>
</svg>