<?xml version="1.0" encoding="utf-8"?>
<svg width="17.677979px" height="18.310486px" viewBox="0 0 17.677979 18.310486" version="1.1" xmlns:xlink="http://www.w3.org/1999/xlink" xmlns="http://www.w3.org/2000/svg">
  <path d="M17.4092 16.678L13.0513 12.1455C14.1718 10.8135 14.7857 9.13757 14.7857 7.39286C14.7857 3.3165 11.4692 0 7.39286 0C3.3165 0 1.43051e-06 3.3165 1.43051e-06 7.39286C1.43051e-06 11.4692 3.3165 14.7857 7.39286 14.7857C8.92318 14.7857 10.3815 14.3241 11.6283 13.4479L16.0194 18.0148C16.2029 18.2054 16.4498 18.3105 16.7143 18.3105C16.9647 18.3105 17.2022 18.215 17.3825 18.0415C17.7657 17.6728 17.7779 17.0614 17.4092 16.678ZM7.39286 1.92857C10.4059 1.92857 12.8571 4.37979 12.8571 7.39286C12.8571 10.4059 10.4059 12.8571 7.39286 12.8571C4.37979 12.8571 1.92857 10.4059 1.92857 7.39286C1.92857 4.37979 4.37979 1.92857 7.39286 1.92857Z" id="Shape" fill="#989899" stroke="none" />
</svg>