<?xml version="1.0" encoding="utf-8"?>
<svg width="14px" height="16px" viewBox="0 0 14 16" version="1.1" xmlns:xlink="http://www.w3.org/1999/xlink" xmlns="http://www.w3.org/2000/svg">
  <path d="M11.6667 11.3176C11.0759 11.3176 10.5429 11.5539 10.1388 11.936L4.59667 8.59859C4.6396 8.41788 4.66667 8.22871 4.66667 8.03576C4.66667 7.84377 4.63867 7.65459 4.59667 7.47388L10.08 4.16847C10.5054 4.58435 11.0742 4.8175 11.6667 4.81882C12.9547 4.81882 14 3.73929 14 2.40941C14 1.08047 12.9547 0 11.6667 0C10.3787 0 9.33333 1.08047 9.33333 2.40941C9.33333 2.60235 9.36133 2.79153 9.40333 2.97223L3.92 6.27671C3.49448 5.86117 2.92567 5.62836 2.33333 5.62729C1.04533 5.62729 0 6.70682 0 8.03671C0 9.36565 1.04533 10.4461 2.33333 10.4461C2.92593 10.4445 3.49478 10.211 3.92 9.79482L9.4612 13.1322C9.42078 13.305 9.40011 13.4818 9.3996 13.6593C9.39867 14.9506 10.4141 16 11.6667 16C12.9192 16 13.9347 14.9515 13.9347 13.6584C13.9347 12.3652 12.9192 11.3176 11.6667 11.3176" id="Shape" fill="#989899" stroke="none" />
</svg>