<?xml version="1.0" encoding="utf-8"?>
<svg width="17.801025px" height="17.800964px" viewBox="0 0 17.801025 17.800964" version="1.1" xmlns:xlink="http://www.w3.org/1999/xlink" xmlns="http://www.w3.org/2000/svg">
  <path d="M8.90046 16.1705C7.28453 16.1705 5.79087 15.6396 4.58215 14.7444L14.7443 4.58221C15.6399 5.79059 16.1704 7.28459 16.1704 8.90052C16.1704 12.9091 12.9097 16.1705 8.90046 16.1705M1.63049 8.90049C1.63049 4.89124 4.89121 1.63019 8.90046 1.63019C10.7072 1.63019 12.3605 2.29381 13.6328 3.38807L3.38838 13.6321C2.29378 12.3599 1.63049 10.7073 1.63049 8.90049M8.90049 0C3.99328 0 0 3.99294 0 8.90049C0 13.8091 3.99328 17.801 8.90049 17.801C13.8091 17.801 17.801 13.8091 17.801 8.90049C17.801 3.99294 13.8077 0 8.90049 0" id="Fill-1" fill="#989899" fill-rule="evenodd" stroke="none" />
</svg>