<?xml version="1.0" encoding="utf-8"?>
<svg width="16.963867px" height="19.864868px" viewBox="0 0 16.963867 19.864868" version="1.1" xmlns:xlink="http://www.w3.org/1999/xlink" xmlns="http://www.w3.org/2000/svg">
  <path d="M8.35256 10.8132L8.44286 10.8121L8.48486 10.8111C9.69761 10.7764 10.6762 10.3396 11.3976 9.51011C12.9526 7.71566 12.6691 4.71476 12.6324 4.38401C12.5043 2.18006 11.4427 1.14266 10.5765 0.658606C9.92546 0.294256 9.17471 0.106306 8.31581 0.100006L8.27591 0.100006C7.81706 0.106306 6.91931 0.190306 6.05726 0.694306C5.18996 1.19726 4.14101 2.26406 4.06331 4.47641C4.03391 4.81451 3.82391 7.82591 5.41571 9.57941C6.14966 10.3921 7.13771 10.8069 8.35256 10.8132ZM11.3041 4.53311C11.3251 4.72001 11.575 7.26626 10.3875 8.63231C9.91391 9.18041 9.27026 9.45446 8.42291 9.47231L8.42501 9.59936L8.38406 9.47336C7.53461 9.47546 6.88676 9.21506 6.40376 8.67746C5.18366 7.33976 5.38106 4.71371 5.39051 4.59506L5.39156 4.59296L5.26661 4.55621L5.39576 4.54886C5.49131 1.77686 7.44956 1.45451 8.30321 1.44611L8.33261 1.44506C9.37631 1.45556 11.1477 1.86506 11.2978 4.47431C11.2978 4.48901 11.2978 4.51001 11.3041 4.53311ZM16.7332 15.55L16.8602 15.5458C16.8623 15.5973 16.8991 16.8111 16.6817 17.4117C16.6334 17.5398 16.5431 17.6532 16.4255 17.7298C16.1147 17.9335 13.2608 19.7091 8.53268 19.7637C3.57668 19.8193 0.625129 17.9304 0.595729 17.9104C0.478129 17.8411 0.386779 17.733 0.334279 17.6007C0.0969791 17.0179 0.0990791 15.865 0.100129 15.7348C0.103279 15.6813 0.103279 15.655 0.102229 15.6235C0.117979 14.793 0.155779 12.8767 1.97123 12.231C1.98698 12.2257 2.00168 12.2205 2.02058 12.2152C3.82343 11.7343 5.28083 10.6885 5.29553 10.678C5.44148 10.573 5.61788 10.5289 5.79638 10.5594C5.97278 10.5877 6.12713 10.6843 6.23213 10.8303C6.33713 10.9752 6.37913 11.1505 6.34973 11.3269C6.32138 11.5033 6.22583 11.6598 6.07883 11.7648C5.65568 12.0598 4.18673 13.0195 2.38808 13.5025C1.54493 13.8154 1.45673 14.7331 1.43888 15.6456C1.43888 15.6624 1.43888 15.6823 1.43783 15.7023L1.43678 15.7422C1.43258 16.0792 1.46303 16.5864 1.52078 16.9003C2.27363 17.3046 4.77263 18.469 8.51378 18.426C12.2738 18.3829 14.7287 17.166 15.4669 16.7449C15.5152 16.4404 15.533 15.9417 15.5246 15.5847C15.5215 15.5626 15.5204 15.5248 15.5194 15.4839C15.4805 14.5756 15.3713 13.66 14.5103 13.365C12.4471 12.8599 10.807 11.7259 10.7902 11.7144C10.6442 11.6136 10.5434 11.4603 10.5109 11.2849C10.4783 11.1085 10.5161 10.9311 10.618 10.7841C10.7188 10.635 10.871 10.5363 11.0464 10.5027C11.2238 10.4701 11.4013 10.509 11.5483 10.6098C11.564 10.6203 13.0666 11.6356 14.86 12.0714L14.9104 12.0861C16.7405 12.6867 16.8203 14.6061 16.855 15.4272L16.8581 15.4807C16.8592 15.5007 16.8602 15.5185 16.8602 15.5364L16.7332 15.55Z" id="Combined-Shape" fill="#989899" fill-rule="evenodd" stroke="#989899" stroke-width="0.2" />
</svg>