<?xml version="1.0" encoding="UTF-8"?>
<svg width="32px" height="32px" viewBox="0 0 32 32" version="1.1" xmlns="http://www.w3.org/2000/svg" xmlns:xlink="http://www.w3.org/1999/xlink">
    <title>5E503813-8A11-499B-8393-D1015F23FAD0@1x</title>
    <g id="1000_Dashboard" stroke="none" stroke-width="1" fill="none" fill-rule="evenodd">
        <g id="101_DashboardOverview_ExistingUser" transform="translate(-201.000000, -330.000000)">
            <g id="Group-12" transform="translate(24.000000, 256.000000)">
                <g id="Group-7" transform="translate(0.000000, 64.000000)">
                    <g id="Group-5" transform="translate(164.000000, 2.000000)">
                        <g id="Wallet_ICO_Blue" transform="translate(13.000000, 8.000000)">
                            <rect id="bg" fill-opacity="0.01" fill="#D8D8D8" x="0" y="0" width="32" height="32"></rect>
                            <path d="M7.3301,22.8403 C7.3301,23.3903 7.7801,23.8403 8.3301,23.8403 L8.3301,23.8403 L24.6701,23.8403 C24.7991,23.8403 24.9001,23.7393 24.9001,23.6003 L24.9001,23.6003 L24.9001,10.2503 C24.7101,10.3103 24.5201,10.3303 24.3201,10.3303 L24.3201,10.3303 L8.3301,10.3303 C7.7801,10.3303 7.3301,10.7803 7.3301,11.3303 L7.3301,11.3303 L7.3301,14.2293 L10.78,14.23 C11.59,14.23 12.25,14.9 12.25,15.71 L12.25,15.71 L12.25,18.46 C12.25,19.28 11.59,19.94 10.78,19.94 L10.78,19.94 L7.3301,19.9393 Z M10.67,15.82 L5.58,15.82 L5.58,18.35 L10.67,18.35 L10.67,15.82 Z M24.3201,7.5903 L10.3701,7.5903 C10.2501,7.5903 10.1401,7.6893 10.1401,7.8203 L10.1401,7.8203 L10.1401,8.7503 L24.3201,8.7503 C24.6401,8.7503 24.9001,8.4903 24.9001,8.1703 C24.9001,7.8503 24.6401,7.5903 24.3201,7.5903 L24.3201,7.5903 Z M5.47,19.94 C4.66,19.94 4,19.28 4,18.46 L4,18.46 L4,15.71 C4,14.9 4.67,14.23 5.48,14.23 L5.48,14.23 L5.7501,14.2293 L5.7501,11.3303 C5.7501,9.9103 6.9101,8.7503 8.3301,8.7503 L8.3301,8.7503 L8.5601,8.7503 L8.5601,7.8303 C8.5601,6.8203 9.3701,6.0003 10.3701,6.0003 L10.3701,6.0003 L24.3201,6.0003 C25.5001,6.0003 26.4601,6.9603 26.4801,8.1303 L26.4801,8.1303 L26.4801,23.6093 C26.4801,24.6093 25.6601,25.4303 24.6601,25.4303 L24.6601,25.4303 L8.3201,25.4303 C6.9001,25.4303 5.7501,24.2703 5.7501,22.8503 L5.7501,22.8503 L5.7501,19.9393 Z" id="Combined-Shape" fill="#F03D3D"></path>
                        </g>
                    </g>
                </g>
            </g>
        </g>
    </g>
</svg>