<?xml version="1.0" encoding="utf-8"?>
<svg width="20.399902px" height="15.356567px" viewBox="0 0 20.399902 15.356567" version="1.1" xmlns:xlink="http://www.w3.org/1999/xlink" xmlns="http://www.w3.org/2000/svg">
  <g id="ico" transform="translate(0.19995117 0.2000122)">
    <path d="M1.96286 0C0.880771 0 5.42101e-19 0.847659 5.42101e-19 1.88907L5.42101e-19 3.37644C5.42101e-19 3.76227 0.325408 4.07628 0.72631 4.07628C1.12721 4.07628 1.45349 3.76227 1.45349 3.37644L1.45349 1.88907C1.45349 1.61849 1.68171 1.39885 1.96286 1.39885L18.0371 1.39885C18.3183 1.39885 18.5465 1.61849 18.5465 1.88907L18.5465 4.91691L13.1491 4.93695C13.0727 5.40295 12.8289 5.81551 12.467 6.10196C12.5712 6.18297 12.664 6.28235 12.7595 6.37755L18.5465 6.37755L18.5465 13.0667C18.5465 13.3373 18.3183 13.5577 18.0371 13.5577L1.96286 13.5577C1.68171 13.5577 1.45349 13.3373 1.45349 13.0667L1.45349 6.86777C1.45349 6.59719 1.68171 6.37755 1.96286 6.37755L6.27386 6.37755C6.24176 6.20217 6.21919 6.02346 6.21919 5.83472C6.21919 5.52989 6.26345 5.2376 6.34762 4.962L1.96286 4.97871C0.880771 4.97871 0 5.82553 0 6.86777L0 13.0667C0 14.1089 0.880771 14.9566 1.96286 14.9566L18.0371 14.9566C19.1201 14.9566 20 14.1089 20 13.0667L20 1.88907C20 0.847659 19.1201 0 18.0371 0L1.96286 0Z" id="Fill-1" fill="#8A8A8C" fill-rule="evenodd" stroke="#8A8A8C" stroke-width="0" />
    <path d="M10.2684 6.53674L9.46825 6.53674C9.01242 6.53674 8.6416 6.1684 8.6416 5.71565C8.6416 5.26287 9.01245 4.89453 9.46825 4.89453L11.0684 4.89453C11.2747 4.89453 11.4419 4.72843 11.4419 4.52354C11.4419 4.31866 11.2747 4.15255 11.0684 4.15255L10.2418 4.15255L10.2418 3.33144C10.2418 3.12655 10.0746 2.96045 9.86831 2.96045C9.66204 2.96045 9.49482 3.12655 9.49482 3.33144L9.49482 4.15255L9.46828 4.15255C8.60057 4.15255 7.89465 4.85377 7.89465 5.71565C7.89465 6.57752 8.60059 7.27872 9.46828 7.27872L10.2684 7.27872C10.7242 7.27872 11.095 7.64708 11.095 8.09983C11.095 8.55259 10.7242 8.92095 10.2684 8.92095L8.66819 8.92095C8.46193 8.92095 8.29471 9.08706 8.29471 9.29194C8.29471 9.49682 8.46193 9.66293 8.66819 9.66293L9.49482 9.66293L9.49482 10.4841C9.49482 10.689 9.66204 10.8551 9.86831 10.8551C10.0746 10.8551 10.2418 10.689 10.2418 10.4841L10.2418 9.66293L10.2684 9.66293C11.136 9.66293 11.842 8.96171 11.842 8.09983C11.842 7.23796 11.136 6.53674 10.2684 6.53674Z" id="Path" fill="#989899" stroke="#989899" stroke-width="0.4" />
  </g>
</svg>