<?xml version="1.0" encoding="UTF-8"?>
<svg width="40px" height="40px" viewBox="0 0 40 40" version="1.1" xmlns="http://www.w3.org/2000/svg" xmlns:xlink="http://www.w3.org/1999/xlink">
    <title>4B557ECF-ED0A-4D09-B7D3-5C4D75C6B2C5</title>
    <g id="1000_Dashboard" stroke="none" stroke-width="1" fill="none" fill-rule="evenodd">
        <g id="101_DashboardOverview_ExistingUser" transform="translate(-120.000000, -545.000000)">
            <g id="Group" transform="translate(24.000000, 533.000000)">
                <g id="02-Components-/-03-Tiles-/-02-Do-More-96px-/-2-Lines-Copy-2" transform="translate(80.000000, 0.000000)">
                    <g id="ICO_BillPayment" transform="translate(16.000000, 12.000000)">
                        <rect id="SafeSpace" x="0" y="0" width="40" height="40"></rect>
                        <g id="ico" transform="translate(10.221348, 6.000016)" fill-rule="nonzero">
                            <path d="M12.2569014,3.08140753 C11.6311737,2.13225499 11.079061,1.25903465 10.5637559,0.461746516 C10.4901408,0.347848211 10.3797183,0.233949906 10.2692958,0.158017703 C9.82760563,-0.145711111 9.23868545,0.00615329593 8.94422535,0.461746516 C8.4657277,1.25903465 7.91361502,2.09428889 7.25107981,3.08140753 C4.34328638,7.48547533 0,14.1295431 0,17.9261533 C0,20.6976787 1.10422535,23.2034414 2.87098592,25.0258143 C4.63774648,26.8102211 7.06704225,27.9492041 9.75399061,27.9492041 C12.440939,27.9492041 14.8702347,26.8102211 16.6369953,24.9878482 C18.4037559,23.1654753 19.5079812,20.6597126 19.5079812,17.8881872 C19.5079812,14.091577 15.1646948,7.48547533 12.2569014,3.08140753 Z M15.3119249,23.6210686 C13.8764319,25.1017465 11.9256338,25.9749669 9.75399061,25.9749669 C7.58234742,25.9749669 5.6315493,25.0637804 4.19605634,23.6210686 C2.76056338,22.1403906 1.91399061,20.1281872 1.91399061,17.8881872 C1.91399061,14.6990347 6.07323944,8.35869567 8.83380282,4.14445838 C9.16507042,3.65089906 9.45953052,3.15733974 9.75399061,2.73971262 C10.0484507,3.15733974 10.3429108,3.65089906 10.6741784,4.14445838 C13.4347418,8.39666177 17.5939906,14.6990347 17.5939906,17.8881872 C17.5939906,20.1281872 16.7106103,22.1403906 15.3119249,23.6210686 Z" id="Shape" fill="#59585B"></path>
                            <path d="M15.4591549,17.2047974 C14.9438498,17.1668313 14.5021596,17.5844584 14.4653521,18.1159838 C14.4285446,18.951238 14.170892,19.7485262 13.7660094,20.431916 C13.3611268,21.1153058 12.7722066,21.7227635 12.0728638,22.1024245 C11.6311737,22.3681872 11.4471362,22.9756448 11.7047887,23.431238 C11.9992488,23.9627635 12.588169,24.1146279 13.0298592,23.8488652 C14.023662,23.2793736 14.8334272,22.4441194 15.3855399,21.4949669 C15.9744601,20.5458143 16.3057277,19.4068313 16.3425352,18.2298821 C16.3793427,17.6983567 15.9744601,17.2427635 15.4591549,17.2047974 Z" id="Path" fill="#F03D3D"></path>
                        </g>
                    </g>
                </g>
            </g>
        </g>
    </g>
</svg>